<?xml version="1.0" encoding="UTF-8"?>
<svg id="Livello_2" data-name="Livello 2" xmlns="http://www.w3.org/2000/svg" viewBox="0 0 180.46 254.01">
  <defs>
    <style>
      .cls-1 {
        fill: #b0680c;
      }
    </style>
  </defs>
  <g id="Livello_1-2" data-name="Livello 1">
    <g id="Livello_vettoriale" data-name="Livello vettoriale">
      <path d="m71.06,114c-.02.15-.13.27-.27.32-.55.59-1.12,1.15-1.73,1.68-1.07,1.05-2.28,1.96-3.58,2.71-.13,0-.25-.06-.31-.18,0-.04,0-.09,0-.13h0c-1.34-1.33-2.5-2.82-3.77-4.22-.31-.27-.52-.72-.15-.75.06-.07.15-.11.24-.09,1.52,0,3,.1,4.55.18s3.19.1,4.78.15c.14.04.24.18.24.33Z"/>
      <path d="m75.15,159.36c-1.07-.53,2.14-5.17,2.54-3.33.05.71-.73,1.13-.95,1.74s-.64.95-1,1.44c-.11.2-.37.27-.57.16,0,0-.01,0-.02-.01Z"/>
      <path d="m83.29,159.43c-.24-.29-.24-.71,0-1,.59-.99,1.06-2.04,1.41-3.13.13-.56.31-1.1.54-1.62.55-.35.68.55.58.91.04.72-1.69,5.63-2.53,4.84Z"/>
      <path d="m90.77,164c-.19-.26-.19-.61,0-.87.53-.71,1-1.32,1.46-2,.53-.84,1-1.72,1.41-2.63.09-.28.14-.67.46-.76,1.65.33-1.1,4.16-1.62,4.92-.42.34-1.06,2.02-1.71,1.34Z"/>
      <path d="m82.73,170.15c-.4-.36,0-.94.23-1.23.49-.65.9-1.36,1.23-2.11.09-.34.45-1.19.86-.69s-1.58,4.74-2.32,4.03Z"/>
      <path d="m82.13,170.74c-.17-.27-.15-.62.06-.87.46-.59.88-1.22,1.25-1.87.37-.46.72-2.37,1.47-2s-2.01,5.78-2.78,4.74Z"/>
      <path d="m74.14,169.29c-1.58-.76,3.86-6.34,3.83-3.87-.13.51-.63.76-1,1.1-.5.48-.96,1-1.37,1.56-.38.43-.7,1.52-1.46,1.21Z"/>
      <path d="m67.29,164c-.6-.55,1.73-3.39,2.39-3.38.76.37-.89,1.83-1.14,2.32-.39.28-.65,1.32-1.25,1.06Z"/>
      <path d="m60.5,174.82c-1.3-.42,1.69-4.2,2.49-3.7.7.85-.94,1.59-1.26,2.32-.38.44-.48,1.5-1.23,1.38Z"/>
      <path d="m67.14,175.31c-.71-.69.39-1.69.53-2.44.36-.7.35-1.68,1-2.23,1.31-.28.07,2.44-.11,3s-.58,1.9-1.42,1.67Z"/>
      <path d="m74.06,178.76c-.52-1.08,1.06-2,1.52-2.91.29-.37.92-1.4,1.34-.64,0,1.33-1.31,2.5-2.06,3.53-.17.23-.49.27-.71.1-.03-.02-.06-.05-.09-.08Z"/>
      <path d="m70.87,191.52c-.52-.2-.15-1-.06-1.27.18-1.09.52-2.15,1-3.14,1.05-.53-.04,4.89-.94,4.41Z"/>
      <path d="m65.23,186c-1.11-.42,2-4.4,2.57-5,.41-.33.59.42.23.6-.41.33-.77.73-1.06,1.17-.48.73-.82,1.55-1,2.41-.1.44-.29.98-.74.82Z"/>
      <path d="m58.36,183c-.84-.65,1.34-3.45,2.15-3.68,1.24,0-.35,1.47-.63,1.87-.41.5-.78,1.03-1.09,1.6-.08.16-.26.25-.43.21Z"/>
      <path d="m48.14,234c-.61-.52,1.17-6.59,1.69-4-.24,1.2-.57,2.38-.77,3.6,0,.4-.58.84-.92.4Z"/>
      <path d="m46.35,225.56c-.34-1,1.13-1.68,1.56-2.42.46-.35,1.49-2.43,2-1.5,0,1.21-1.23,2.08-1.88,3-.38.36-1.1,1.65-1.68.92Z"/>
      <path d="m55.23,217.32c-.26-.14-.25-.52-.14-.75.43-1,.88-2,1.35-3,.23-.44.89-2.31,1.44-1.26-.26,1.19-.7,2.33-1.29,3.39-.32.51-.64,1.84-1.36,1.62Z"/>
      <path d="m63.12,210.91c-.63-.5.22-1.36.35-1.91.38-.97.8-1.93,1.28-2.86.1-.12.29-.26.46-.15.14.11.21.3.17.48-.24,1.24-.69,2.44-1.32,3.53-.17.38-.38,1.16-.94.91Z"/>
      <path d="m71.15,204.8c-.35-.05-.45-.45-.4-.74.22-.87.38-1.76.47-2.66,0-.45-.07-1.12.47-1.31.33-.1.49.3.54.54.13.92.08,4.04-1.08,4.17Z"/>
      <path d="m65.44,199.56c-.37-.05-.46-.47-.41-.77.16-.66.25-1.33.28-2,0-.5-.24-1.17.26-1.5.19-.11.43-.06.55.12.49.68.46,4.22-.68,4.15Z"/>
      <path d="m58.16,193.59c-1-.6,2.17-4,2.9-3.77.87.74-.86,1.68-1.23,2.29s-.84,1.29-1.5,1.52c-.06,0-.12-.01-.17-.04Z"/>
      <path d="m51.26,201.67c-.73-1,2.06-3.52,3-3.84.91,0,.31,1.1-.16,1.35-.84.69-1.58,1.48-2.22,2.35-.13.21-.41.27-.62.14Z"/>
      <path d="m58.42,205.35c-1.25-.46,1-4,1.65-4.59.18-.22.61-.38.78,0,.22.84-.75,1.51-1,2.28-.52.62-.51,2.17-1.43,2.31Z"/>
      <path d="m50.15,212.41c-1.15-.57,1.4-4.41,2.27-4.6.72.11.27,1,0,1.36-.63.88-1.17,1.83-1.61,2.83-.08.29-.37.46-.66.41Z"/>
      <path d="m106.62,182.13c-.5-.68-1.46-5.71.43-4.33.2.42.29.89.26,1.36.09.92.28,1.82.56,2.7.25,1.02-.92,1.14-1.25.27Z"/>
      <path d="m146.35,216c-.63-.66-1.3-1.27-2-1.85-.24-.24-.54-.71-.24-1,.16-.09.35-.09.51,0,.93.53,1.73,1.26,2.33,2.15.44.45-.02,1.23-.6.7Z"/>
      <path d="m144.21,206.76c-.61-.28-2.8-5.37-1.17-4.51.65,1.25,1,2.68,1.74,3.92.33.48-.1,1.07-.57.59Z"/>
      <path d="m152.26,212.41c-.56-.75-1.24-1.4-2-1.94-.25-.23-.31-.81.11-.88,1.15.24,1.79,1.52,2.39,2.44.3.42-.19.81-.5.38Z"/>
      <path d="m149.67,204.58c-.86-.11-3.27-2.06-2.37-2.91.17-.04.35.01.47.14.46.5.98.94,1.55,1.31.41.18.89.43.88.95.03.25-.15.48-.4.51-.04,0-.09,0-.13,0Z"/>
      <path d="m141.99,188.76c-.84-1.23-1.8-2.36-2.87-3.39-.09-.14-.09-.31,0-.45.68-.86,4.45,3.62,3.54,4.11-.25.11-.55,0-.66-.25,0,0,0-.01,0-.02Z"/>
      <path d="m134.21,179.88c-.83-1-1.74-1.92-2.73-2.76-.29-.24-.63-.74-.31-1.08.71-.7,4.64,3.4,3.62,4-.21.08-.44.02-.58-.16Z"/>
      <path d="m112.67,176.33c-.49-.99-.69-2.1-.58-3.2,0-.39.43-.68.68-.25.32,1.06.28,2.23.69,3.28.17.63-.61.71-.79.17Z"/>
      <path d="m114.26,186.22c-.65-1.21-.77-2.64-.33-3.94.04-.23.26-.38.49-.34.14.03.26.12.31.25.18,1,0,2.26.3,3.22.06.38.35,1-.19,1.15-.24,0-.47-.12-.58-.34Z"/>
      <path d="m119.8,180.12c-.42-.46-1.73-5.16-.24-4.28.47,1.27.68,2.69,1.12,4,.2.66-.62.84-.88.28Z"/>
      <path d="m123.85,190.07c-.7-1.13-1.86-2.11-2.29-3.36.15-.89,1.12,0,1.42.38.52.68,2.51,2.42,1.66,3.24-.29.12-.63,0-.79-.26Z"/>
      <path d="m131.48,194.86c-.62-1.05-1.32-2.05-2-3.05-.13-.18-.19-.55.08-.65.21-.02.42.07.55.24.85.94,1.55,2.01,2.08,3.16.2.55-.44.8-.71.3Z"/>
      <path d="m126.36,181c-.52-.44-2.12-3.67-1-3.8.83.89.9,2.36,1.64,3.36.3.5-.28.97-.64.44Z"/>
      <path d="m134.55,188c-.36-.53-3.35-3.09-2.2-3.43,1.16.63,1.8,1.89,2.71,2.79.43.43,0,1.16-.51.64Z"/>
      <path d="m140.79,196.76c-.65-.23-3.22-3-1.71-3.2.78.55,1.15,1.59,2,2.07.58.31.49,1.47-.29,1.13Z"/>
      <path d="m59.19,158.4c2.17-4.32,4.63-8.49,7.37-12.48-8.59-1.77-16.11-6.89-20.9-14.23,1.77,8.33,5.4,16.16,10.62,22.89.94,1.29,1.88,2.59,2.91,3.82Zm35.27-123.82v-2.09h-.24c-.31,0-.62,0-.94-.05l-3.46-.2-8.49-.57-3.74-.27c-1.38-.1-2.76-.19-4.13-.3l-4-.32c-.89-.09-1.8-.14-2.7-.2,0,.18,0,.36.06.54s0,.41,0,.62c.06.57.12,1.14.2,1.68.16.97.38,1.93.66,2.87.26.89.57,1.76.94,2.61.36.81.76,1.6,1.22,2.36.43.71.9,1.39,1.41,2.05.49.63,1.02,1.22,1.59,1.78.5.48,1.02.93,1.57,1.34.53.39,1.08.75,1.65,1.07.03,0,.05,0,.08,0h0c.52.29,1.06.55,1.62.76.53.2,1.07.37,1.62.5.54.13,1.08.22,1.63.28.43.03.85.03,1.28,0,.5.02.99,0,1.49-.04.45-.07.89-.17,1.32-.3.42-.13.84-.27,1.25-.44h0c.87-.39,1.7-.88,2.45-1.46h0c.44-.34.87-.71,1.26-1.1.43-.45.83-.92,1.21-1.41.83-1.1,1.5-2.32,2-3.6.3-.77.55-1.55.74-2.35.19-.82.33-1.65.42-2.48-.02-.43.01-.86.03-1.28Zm10.94-26.84h.26c-5.16-5-20.8-4.92-26.38-.82,1.28-.44,2.71-.78,3.83,0,.32.28.55.76,1,.8.39,0,.76-.17,1-.47.57-.83,1.47-1.38,2.47-1.51.62.02,1.2.32,1.57.83.78.73,1.58,1.75,2.73,1.6.79-.27,1.22-1.11,2-1.36,1-.52,1.9,0,2.8.42.66.45,1.44.67,2.24.63,1-.18,1.54-1.16,2.46-1.46.73-.05,1.45.19,2,.67.56.48,1.28.72,2.02.67Zm3.26,17.18c-.06-.19,0-.46-.11-.62-.15-.51-.52-.93-1-1.15-.33-.11-.7-.06-1,.12-1.49.78-3.4,1.26-5,.44-.85-.44-1.49-1.27-2.45-1.34-.67.1-1.32.31-1.93.61-1.42.49-2.97.45-4.36-.11-.77-.16-1.32-.92-2.09-1-1.02.2-2.01.54-2.94,1-1.43.47-3,.23-4.22-.65-.69-.44-1.32-1.11-2.16-1.06-.67.21-1.3.5-1.9.86-1.63.83-3.45.14-4.85-.83-.33-.24-.75-.31-1.14-.19-1.5.95-3.71,1.3-5.07,0-.22.44-.4.9-.54,1.37-.3,1.1-.74,3.49,1,3.42.71-.3,1.29-.75,2-1.1,2-1.08,3.09,1.78,4.91,2,1.36.1,2.72-.3,3.81-1.12.75-.34,1.61-.26,2.29.2h.1c.81.42,1.29,1.25,2,1.8h0c1.07.44,2.29.37,3.3-.19.7-.72,1.62-1.21,2.61-1.38.44,0,.87.16,1.21.44.57.4,1,.94,1.52,1.29.87.52,1.93.63,2.89.29,1-.37,1.67-1.34,2.65-1.78,1.15-.23,2.34.07,3.25.82,2.05,1.44,5.26,1.41,6.65-.85.27-.39.47-.83.57-1.29Zm1.5-7.15c.79-.69-1.54-5.49-2.54-5.67-.13-.03-.27-.03-.4,0-1.11.33-2.29.33-3.4,0-.73-.23-1.34-1.25-2.13-1.13-1.45,1.11-3.31,1.66-5,.65-.18-.13-.56-.22-.7-.41-.15-.1-.32-.17-.5-.21-.86-.03-1.7.28-2.34.86-.69.67-1.66.97-2.61.81-1.31-.15-2.24-1.16-3.41-1.64-.18-.06-.38-.06-.56,0-.71.53-1.53.89-2.4,1.08-1.17.22-1.86-.52-2.67-1.18-.47-.24-.89.28-1.24.54-.93.77-2.3.63-3.07-.29-.05-.06-.09-.12-.13-.18-.24-.36-.54-.74-1-.53-.06.02-.12.02-.18,0-1.73,1.41-3.14,3.16-4.16,5.14-.07.17-.07.37,0,.54h0c.07,0,.13-.02.19-.06.67-.66,1.59-1.01,2.53-.94,1.48.24,2.21,2,3.67,2.2.78.06,1.55-.2,2.14-.72.58-.5,1.34-.76,2.11-.72,1.53.14,2.33,2.19,4,1.7.46,0,1-.53,1.44-.62.86-.97,2.18-1.41,3.45-1.15,1.45.14,2.26,1.89,3.77,1.69.92,0,1.48-.71,2.2-1.13.44-.3.96-.47,1.49-.48,1.53,0,2.72,1.52,4.15,2.19,1.32.4,2.21-.88,3.27-1.37,1.34-.62,2.93-.2,3.79,1h0c.08.03.16.04.24.03Zm44.68,211.63c3.38-4.44,10.62-7.21,4.9-13.3-.15-.21-.48-.41-.44-.67-3.66-4.18-6.71-8.86-9.06-13.9-.63-1.44-1.13-2.92-1.62-4.41-1-.21-3.2-1.35-2.24-2.07.62.22,1.23.48,1.81.79-.44-1.31-.89-2.63-1.45-3.9-2.03-4.54-4.87-8.68-8.37-12.22-.09,0-.18-.04-.24-.1l-.31-.28c-.11,0-.2-.09-.22-.2-1.87-1.65-3.96-3.02-6.22-4.08-1.64-.8-3.48-1.19-5.08-2.05.3.77.42,1.78-.14,1.79s-1-1.68-.81-2.38l-.29-.23c-2.13-1.79-3.57-3.1-5.64-3.52.22.77.33,1.59.5,2.37s-.61.72-.81.17c-.42-.84-.68-1.75-.76-2.68-.81-.04-1.63.02-2.43.18h0c-.1.04-.22,0-.27-.1l-.47.36c-5.16,3.91-10.82,7.16-16.21,10.77,2.75,3.33,6.18,6.88,10.66,7.37.11,0,.21.06.25.17.14.13.3.25.46.35,2.25,2.16,4.64,4.17,7.17,6,0-.58-.46-2.35.43-2.12.5.17,1.07,2.31.62,2.89,2.31,1.64,4.67,3.21,7,4.77-.02-.2-.05-.39-.1-.58,0-.54-.61-1.82.27-1.86.56,0,1.33,2.33,1.1,3.27,2.8,1.77,5.64,3.55,8.3,5.55-.14-1.12-.31-2.23-.52-3.31,0-.67.68-.54.88-.06.54,1.38.83,2.84.86,4.32,1.69,1.33,3.27,2.8,4.71,4.4,1.38,1.49,2.6,3.11,3.65,4.85h0c.61.91,1.75,4,1.29,4.77-.09,2.57-1.31,5.3-2.21,7.57-.54,1.37-.95,2.8-1.52,4.16-.02.04-.05.07-.09.1-.16.49-.43,1-.61,1.42-.56,1.23-1.73,2.06-3.07,2.19-1.4.49-3.12.69-4.15,1.81-.23.59.36,1.5,1,1.38.18-.06.35-.17.48-.31.82-1.09,2.04-1.81,3.39-2,.45-.17,1.36.12.86.69s-1.25.54-1.71,1c-.28.25-.61.48-.7.83.14.46.58.75,1.06.7.65-.42,1-1.15,1.66-1.62,1.12-.92,2.45-1.54,3.88-1.8.34-.04.66.14.8.45.1.69-.68,1.05-1.2,1.3-.94.5-2.47.86-2.61,2.05h0c.05.15.26.25.39.3,1.73.45,3.53.49,5.28.14,1.13-.32,2.23-.76,3.27-1.31.04-.01.07-.01.11,0,3.49-2.31,2.14-6.57,4.53-10.17Zm19.89-101.87c.45-1.72.41-3.53-.1-5.23-1.87-3.62-5.08-6.4-6.4-10.34-3.49-9.26-4.9-19.94-11.54-27.59h0l-.26-.46-.14-.24-.14-.18-.61-.71-.37-.42c-.08-.1-.17-.2-.26-.29l-.23-.19-.58-.45s0-.05,0-.08c-1-.82-2-1.63-3-2.43-3.75-3.28-6.32-7.63-9.66-11.28-4.75-5.15-10.3-9.5-16.43-12.89-2.82-1.31-5.53-3.09-8.64-3.47-8.21-1-15.94,2.26-24,3.05-4.55.19-9.1-.19-13.56-1.12-2.64-.86-5.23-1.86-7.76-3-.19-.06-.37-.15-.54-.26h-.45c-.2-.01-.41-.01-.61,0-4.13,0-8.57.53-12.2,2.57-8.96,6.28-14.09,16.25-20.67,24.74-4.43,5.87-10.46,10.4-14.42,16.65-2.73,4.12-5.18,8.54-9,11.82-1.29,1.13-2.86,1.8-4.16,2.9-.51.28-1,1-1.61,1.16-2.37,2.62-2.53,6.45-2,9.83.89,1.68,2.73,2.58,4.3,3.46-1.79-3.94-1.65-6.65,1.63-9.71.84-.63,2.12-2.6,3.07-1.13,1.79,2.52-.85,5.2-1.17,7.72-.14.86.2,1.73.88,2.28.31.21.72.48,1.09.23.56-.85.67-1.94,1.37-2.72,1.61-1.92,3.86-3.31,4.76-5.76,1.09-2.37.66-5.32,2.5-7.35.22-.19.43-.39.62-.61,1.25-1.61,3.24-2.59,4.77-3.91,4.18-3.53,8.73-7.27,11-12.34-.1-.08-.17-.18-.2-.3-2.12-9.73,5.64-18,12.82-23.38l.23-.1c.07-1.74,2.68-5.66,3.6-5.79h0c.09-.1.22-.14.35-.11.79.78.75,2.19,1,3.24.45.31,1.08.23,1.58.46.38.21.52.69.31,1.07-.05.1-.13.18-.21.25-2.35,2.49-5.17,4.54-7.39,7.16-4.24,4.72-8.69,14.24-1.43,18.34.41.32,1.18.41,1.6.74,3,.29,6.18-.76,8.93-2,3.33-1.91,6.09-4.67,8-8,.13-.31.41-.64.76-.57.35-.11.6.35.64.85.06.09.1.19.11.29-.17,8.56-8.47,16.21-16.93,16.32-.35.02-.69-.05-1-.21-2.22,3.49-4.51,7.26-5.64,11.26-1.42,5.7-1.28,12.41,2.19,17.25h0c.32.13.58.62.85.78,2.88,2.69,6.37,4.64,10.18,5.67,6.68,2.1,13.72.67,19.91-2.17,6.93-2.69,13.38-6.46,19.13-11.17,1.7-1.21,3.3-2.55,4.79-4,.28-.21.68-.16.89.12.29.05.54.23.68.49.91,5.39-6.06,9.87-9.52,13.12-5.2,4.37-10.7,8.37-16.47,11.95-5.66,5.28-10,11.82-14.48,18.11-3.51,5.89-8.07,11.63-9.27,18.52-.3,2.33-.11,4.72-.58,7-.59,2.37-1.38,4.68-2.37,6.91-1.87,4.67-3.4,9.47-5.1,14.21-1.83,5.08-3.35,10.26-4.56,15.52-.38,1.8-.96,3.55-1.73,5.22-.03.15-.08.29-.15.43-.21.39-.45.77-.71,1.13l-.07.12s-.06.07-.1.1c-2.54,3.28-7,4.5-11.08,4.28-2.28.12-4.55-.27-6.66-1.12-1.46-.46-3-1.29-4.53-1-.24.04-.47.17-.63.35-.27.48-.09,1.09.39,1.36.06.03.12.06.19.08.59.01,1.17-.08,1.73-.27.79-.31,1.67-.35,2.48-.1.32.08.55.35.58.68-.05.74-1,.9-1.51,1.2-.4.16-.71.46-.89.85-.06.16-.06.33,0,.49.1.14.34.11.48.11,1.35-.39,2.72-1.75,4.18-1,.42.23.57.76.34,1.18-.06.11-.14.2-.24.28-.7.59-1.83.48-2.34,1.3-.14.39.09.86.55.69.65-.3,2.47-1.34,3.63-1.34.49-.06.94.3.99.79,0,.03,0,.05,0,.08-.1,1.14-1.35,1.47-2.18,2-.03.03-.06.07-.07.11.1.34.31.63.59.84,1.21,1.01,2.6,1.78,4.1,2.27.47.25,6,1.53,7.32,2.42,2.67,1.32,5,3.74,8.17,3.31s2.65-3.49,2.75-5.85c-.02-.06-.02-.14,0-.2.03-.26.08-.52.14-.77.11-.63.3-1.25.55-1.84.34-.93.74-1.84,1.1-2.75,1.39-3.31,3.22-6.42,5.44-9.24-.2-.11-.31-.34-.27-.56.06-.84.22-1.67.48-2.47.1-.31.29-.78.67-.82.12,0,.23.06.28.17.06.86-.04,1.72-.29,2.55,1.32-1.67,2.69-3.29,4.07-4.91h0c-.13-.73-.12-4.49.9-4.38.36.14.3.69.3,1,0,.7,0,1.41-.07,2.11.65-.77,1.29-1.53,1.91-2.3.94-1.12,1.89-2.24,2.82-3.36v-.06c.12-1-.47-3.54.74-3.8.17.02.3.17.31.34.12.68.16,1.38.14,2.07,3.67-4.59,6.89-9.44,7.67-15.39-.08-.09-.12-.19-.13-.31-.05-1.92-.35-3.83-.9-5.68-.28-.63-.65-1.71.24-2,.8-.1.87,1,1,1.55.12.42.21.85.27,1.29.14-2.83.68-5.62,1.62-8.29.83-1.91,2.05-3.63,3.59-5.05,0-.9.14-3.64,1-3,.18.69.16,1.41-.06,2.09,1.42-1.26,3-2.41,4.4-3.57l1.26-1c-.16-.68.45-1.52.54-2.2.14-.53.17-1.95,1-1.53.42.2.3,1.43,0,2.5,1.13-.89,2.28-1.75,3.47-2.56.63-.44,1.25-.91,1.89-1.35.45-.44.9-.88,1.34-1.33-.76-.74.18-2.21.16-3.17,0-.43.21-1.3.82-1s.39,2,0,3.25c3.1-3.15,6.11-6.42,9.18-9.6,9.12-9.83,16.85-21.37,15.94-33.83-1.42-8.54-6.61-16-13.13-21.6-2.89,1.48-12.16,1.66-13.7,1.53-11.4-.67-22.76-7.51-23.39-19.88-.36-5.31,2.07-10.36,4.7-14.83.47-.69,2.39-4.06,3.26-3.22h0c.32,0,.56.51.25,1.31-.95,3.34-1.51,6.78-1.65,10.25-.21,4.21.43,8.71,3.43,11.91,2.57,2.22,5.43,4.44,8.8,5.14,3.52.55,7.1.42,10.57-.39,2.56-.8,4.87-2.23,6.73-4.16,3.8-5.1,4.5-11.87,1.81-17.64-.27-.61-.58-1.2-.83-1.82-.14-.35.03-.76.38-.9.24-.1.5-.05.7.11,1.39.47,2.65,1.27,3.68,2.32-.12-1.68-.34-3.35-.64-5-.13-.12-.19-.3-.15-.48.36-1.1,3.08.29,3.89.51,4.56,2.13,8.65,5.17,12,8.93,4.02,4.29,8.37,8.27,13,11.9l.05-.07.41.2.56.2.59.19.27.11h0c.11,0,.21.12.32.18l.25.15.13.12.5.47.15.15c.98,1.17,1.6,2.6,1.8,4.11.62,1.83,1.49,3.57,2.6,5.16,3.59,5.83,12.49,13.68,9.29,20.92h0c-.3,1.87-1.08,3.81-.67,5.72.75,2.32,2.18,4.36,4.12,5.85h0c.23-.58.35-1.2.35-1.82,0-.28-.03-.56-.09-.83-.34-.72-1-1.41-.85-2.3.41-2.41,2.65.44,3.52,1.1,2.53,2,2.39,5.51,1.36,8.29-.18.37-.25.77-.21,1.18.35.16.76.16,1.11,0,1.77-.53,3.05-2.08,3.22-3.92,0-1.48-.47-3-.22-4.46,1-.92,1.64.3,2.09,1.51h0v.13c.23.56.42,1.15.68,1.65l.1-.07c.11-1.11.78-2.35.87-3.58Zm5-7c1.38,4.52.77,9.42-1.67,13.47-.09.44-.27.86-.52,1.23-1,1.94-3,2.73-4.94,3.33-2.12,1-3.81,3.13-6.39,2.75-2.07-.18-3.76-1.75-4.07-3.81-.88-.37-1.7-.88-2.42-1.52-1.25-1.29-1.79-3.22-3.24-4.33-4.36-3.43-4.29-9.26-3-14.17.07-.7.06-1.41-.05-2.1-.07-.33-.13-.66-.16-1h0c-1.75-4.62-5.65-7.87-8.34-11.91-1.53-2.17-2.24-4.77-3.41-7.12-1.68-2.69-4.72-3.88-7.36-5.39-2.58-1.47-5.01-3.17-7.28-5.08-.12-.13-.25-.24-.39-.35,0,.06,0,.11,0,.17-.1,2.91-.8,5.78-2.06,8.41-.13.5-.41.94-.8,1.27,1.43,1.21,2.66,2.67,4,4,5.95,5.81,9.76,13.47,10.79,21.72,1.15,9.22.61,19.06-4.48,27.11-.5,1.08-4.23,6.82-6.41,8.45,1.29,3.53,1.93,7.28,3.44,10.71.42.87.88,1.71,1.38,2.53h0c.05.03.09.08.1.14h0c.95,1.2,2.16,2.17,3.53,2.85,2.96,1.36,5.63,3.29,7.85,5.67,1.99,2.34,3.8,4.83,5.4,7.45,1.37.11,4.12,1.31,3.79,2.36-.1.2-.34.28-.54.18-.03-.02-.06-.03-.08-.06-.67-.49-1.44-.81-2.25-.95,1.31,2.25,2.49,4.56,3.55,6.94,1.56.64,3.55,1.75,3.31,2.91-.12.23-.41.33-.65.2-.03-.02-.06-.04-.09-.06-.54-.37-1.14-.79-1.74-1.14.27.64.53,1.29.78,1.94.59,1.54,1.14,3.14,1.73,4.7,1.55.62,3.37,1.93,2.83,2.79-.18.21-.49.24-.71.07-.45-.32-.89-.64-1.35-.94.74,1.82,1.71,3.53,2.88,5.1,2.39,2.48,5.82,5,6.27,8.6.06.11.08.24.06.36.15,3.43-1.02,6.79-3.26,9.39-2.08,1.92-3.65,4.33-4.59,7-.58,1.29-1.06,2.63-1.43,4,1.26-.08,2.53,0,3.77.21,3-.11,5.94.48,8.91.61,1.58-.03,3.15.11,4.7.4.47.13,1.1.11,1.3.65.35,1.44-1.4,2-2.53,2.16-2.87.91-5.86,1.37-8.87,1.37-3.5.43-7.03.5-10.54.19l-2.15.18c-2.31.74-4.73,1.08-7.16,1-4.25.22-18.37-2.57-13.54-9,1.25-1.76,3.65-1.82,5.12-3.26.45-.47.86-.98,1.21-1.53.97-2.33,1.81-4.7,2.53-7.12.78-2.17.78-4.53,0-6.7v-.05c-.15.25-.29.49-.4.71-.29.61-.81,1.52-1.54.87-.9-.69-.06-1.81.35-2.45.11-.17.25-.42.4-.67-1.27-1.5-2.63-2.93-4.08-4.26.07.7.42,1.82-.54,1.78-1.11-.35-.81-1.85-.92-2.77v-.29c-1.31-1.12-2.68-2.18-4.09-3.19.18.64.37,1.27.6,1.91.25,1-.9,1.08-1.22.26-.49-1.05-.82-2.17-1-3.31-1.83-1.23-3.71-2.39-5.6-3.51.2,1.19.53,2.36,1,3.48.34.88-.69,1.13-1,.33-.76-1.34-1.2-2.83-1.31-4.36,0-.08,0-.17,0-.25-1-.55-1.92-1.09-2.89-1.62-1.01-.56-1.99-1.19-2.91-1.89.19.5.38,1,.58,1.47.15.28.06.63-.22.78s-.63.06-.78-.22h0c-.43-.27-1.12-2-1.4-3.5-1.73-1.5-3.35-3.14-5-4.72.12.74.23,1.49.36,2.23.13.91-1,.87-1.22.14-.41-1.13-.62-2.33-.61-3.53-.22-.01-.44-.04-.66-.08-4.71-1-8.21-4.79-11.12-8.4-.94.69-1.86,1.4-2.75,2.13-.36.32-.72.65-1.08,1,.15,1-.27,2.76-.89,2.78-.34,0-.52-.33-.49-.63l.11-.92c-.75.74-1.47,1.5-2.12,2.24-.31.3-.59.64-.82,1,.6,1.25.9,2.62.86,4,.09.54-.74,1.06-.91.35-.19-1.09-.45-2.17-.8-3.23l-.22.26c-.08.27-.15.55-.21.83-.31,3.25-.79,6.47-1.43,9.67.65,1.37,1.22,3.71.5,4.22-.18.06-.37-.03-.43-.21,0-.02-.01-.05-.02-.07-.1-.69-.29-1.36-.56-2-.38,1.26-.87,2.49-1.47,3.66-.77,1.72-1.71,3.36-2.79,4.9.3,1.33.69,3.7-.37,4-.26-.03-.46-.25-.45-.51-.03-.67-.12-1.34-.26-2-1.84,2.28-3.84,4.42-6,6.4.17,1.6,0,3.38-.73,3.49-.32,0-.47-.32-.46-.59.03-.59.03-1.19,0-1.78-2.23,2.08-4.5,4.12-6.62,6.28.09,1.73-.16,3.6-.86,3.7-.25,0-.46-.21-.45-.47,0,0,0-.01,0-.02v-1.87c-1.47,1.56-2.8,3.23-4,5,.07.43.1.86.11,1.29-.09.81.18,2.15-.71,2.57-.32.08-.57-.22-.59-.53s0-.91,0-1.36c-.14.24-.27.49-.4.74-1.76,3.21-1.72,7.26-3.48,10.41.22-.03.45-.03.67,0,2.93.17,5.87.38,8.78.76,2.05.37,11.19.7,11.19,3.12-.65,2.93-7,2.24-9.43,2.57-2.95.18-5.91.38-8.87.38-1,0-1.95,0-2.92-.07-2.16-.16-4.32-.47-6.47-.78-1.29.21-2.62.18-3.9-.08-3.7-.41-6.78-2.41-10-4-3.13-.78-6.11-2.06-8.84-3.78-2.49-1.42-4.72-3.24-6.63-5.38-2-2.25-4.23-4.61-5.14-7.57-.48-3.07,1.45-6.01,4.46-6.79,2.72-.37,5.08,1.45,7.57,2.15,3,.63,6.09.63,9.09,0,.65-.24,1.25-.58,1.8-1,.21-.49.59-1,.72-1.43.55-1.17,1.04-2.37,1.46-3.6l-.21.16c-.57.29-1.73,1.37-2.06.3-.15-1.06,1.2-1.35,1.87-1.88.37-.19.72-.41,1.06-.64.81-2.7,1.44-5.46,2.22-8.18-.35.29-.68.59-1,.9-.15.14-.39.12-.52-.03-.02-.02-.03-.04-.05-.07-.27-.89,1-1.39,1.47-1.93.21-.15.41-.31.61-.47.1-.33.2-.65.31-1,1-3.08,2-6.14,3.09-9.18-.58.32-1.13.69-1.65,1.09-.29.24-.74.64-1,.16-.51-.78,1.51-2.41,3.45-3.41,1.08-2.89,2.2-5.76,3.38-8.6-.62.35-1.22.74-1.77,1.19-.16.14-.4.13-.54-.03-.02-.02-.04-.05-.05-.07-.46-.61,1.42-2,3.12-2.88.12-.29.24-.57.37-.86.73-1.99,1.02-4.12.86-6.23.01-.08.03-.16.06-.23-.67-5.47,3-10.78,5.27-15.67-.22.03-.44-.04-.6-.18-8.61-7.76-14.41-19.94-15.47-31.47-.23-6.07-.46-12.25.61-18.25,1.18-5.27,3-10.38,5.41-15.22.26-.39.71-1.49,1.19-2.17-.15-.03-.29-.11-.39-.23-.13.27-.31.53-.4.77-2.65,4-6.61,6.88-10,10.22-3,2.6-6.74,4.28-9.66,6.9-1,1.46-1.19,3.37-2.38,4.75-1,1.3-2.65,2.07-3.63,3.39-1.24,2.13-1.87,5.27-5.06,4.55-.55,1.49-2.06,2.39-3.63,2.17-.08,0-.17-.04-.24-.08-4.17-.23-7.33-3.51-10.42-6-2.69-2.66-1.49-10.2-.49-13.57,1-2.83,3.65-4.47,5.94-6.12,1.7-1.41,3.39-3,4.92-4.56,1.42-1.41,2.56-3.08,3.37-4.91.07-.13.15-.33.25-.52h0s0-.08,0-.12c3.43-8.07,10.84-13.08,16.24-19.64,7.19-8.83,12.46-20.43,23.08-25.76l.24-.12h0c3.14-1.84,6.93-2,10.49-2.14h.38c-5.14-7.32-5.16-17.45-2.27-25.67,1.94-5.64,5.96-10.2,10.27-14.14h0v.08c1.36-1.2,2.87-2.24,4.48-3.08,1.51-.75,3.08-1.37,4.7-1.84.03-.05.08-.08.13-.1.36-.13.73-.24,1.1-.33h0l1.36-.32c17.41-2.22,32,4.46,35.59,22.74.04.07.04.15,0,.22,1.14,8.36-1.95,16.74-8.25,22.36,13,1.62,24.6,9.51,33.26,19.09,1.91,1.93,3.68,4,5.31,6.18.13.05.25.13.34.24,5.16,6.08,11.91,11.14,14.44,19,.16.07.29.21.35.38,2.21,6.57,4.5,13.15,6.82,19.67,1.9,3.45,4.99,6.33,6.05,10.27v-.03Z"/>
      <path class="cls-1" d="m49.83,230c-.52-2.55-2.3,3.52-1.69,4,.33.41.87,0,.92-.44.2-1.19.52-2.37.77-3.56Zm-1.77-5.35c.65-.93,1.92-1.8,1.88-3-.55-.92-1.58,1.16-2,1.51-.44.74-1.91,1.4-1.57,2.42.56.71,1.28-.58,1.69-.93Zm4.32-15.48c.3-.33.75-1.25,0-1.36-.87.18-3.42,4-2.27,4.6.29.06.57-.11.66-.39.44-1,.98-1.96,1.62-2.85h-.01Zm1.73-10c.46-.25,1.07-1.36.16-1.35-1,.32-3.75,2.79-3,3.84.21.14.49.09.63-.12,0,0,0-.01.01-.02.63-.87,1.37-1.66,2.21-2.34h-.01Zm3.76,13.17c-.55-1-1.21.82-1.44,1.27-.47,1-.92,2-1.36,2.95-.14.25-.08.57.14.76.73.21,1.05-1.12,1.37-1.59.6-1.06,1.03-2.2,1.3-3.38h-.01Zm2-31.12c.28-.4,1.87-1.85.63-1.87-.81.23-3,3-2.16,3.68.18.05.36-.04.44-.21.32-.56.69-1.09,1.1-1.59h-.01Zm0,21.77c.26-.78,1.23-1.44,1-2.28-.17-.34-.6-.18-.79,0-.61.62-2.89,4.12-1.64,4.59.9-.09.89-1.63,1.4-2.3h.03Zm0-10.89c.37-.61,2.1-1.55,1.23-2.3-.73-.18-3.91,3.18-2.9,3.77.06.02.11.02.17,0,.62-.17.95-.99,1.46-1.46h.04Zm1.9-18.67c.32-.73,2-1.47,1.26-2.32-.8-.5-3.79,3.28-2.49,3.69.71.14.81-.92,1.19-1.36h.04Zm3.65,33c.04-.18-.03-.37-.17-.48-.16-.11-.36,0-.46.16-.49.94-.93,1.9-1.32,2.89-.13.55-1,1.41-.35,1.92.56.24.77-.54,1-.9.62-1.1,1.04-2.3,1.26-3.55l.04-.04Zm.06-6.91c1.14.07,1.16-3.47.68-4.11-.12-.18-.36-.23-.55-.12-.5.33-.23,1-.26,1.5-.03.67-.12,1.34-.28,2-.09.3,0,.72.37.77l.04-.04Zm2.58-17.84c.36-.18.18-.94-.23-.6-.54.56-3.68,4.54-2.57,5,.46.12.64-.42.71-.78.17-.86.51-1.68,1-2.41.3-.46.66-.87,1.09-1.21Zm.48-8c.18-.58,1.42-3.3.11-3-.6.54-.59,1.52-1,2.22-.14.75-1.24,1.75-.53,2.44.87.2,1.09-1.13,1.39-1.68l.03.02Zm0-10.75c.25-.49,1.9-1.95,1.14-2.32-.66,0-3,2.83-2.39,3.38.6.27.86-.77,1.25-1.08v.02Zm2.29-48.6c.13-.06.22-.19.23-.33,0-.18-.15-.32-.33-.33-1.59,0-3.19-.07-4.78-.15s-3-.14-4.55-.18c-.09-.02-.18.02-.24.09-.37,0-.16.48.15.75,1.27,1.4,2.43,2.89,3.77,4.22h0s0,.09,0,.13c.06.12.18.19.31.18,1.34-.74,2.57-1.65,3.67-2.71.62-.53,1.21-1.09,1.77-1.69v.02Zm0,77.21c.91.49,2-4.94.9-4.41-.48.99-.82,2.05-1,3.14-.01.3-.38,1.05.14,1.25l-.04.02Zm.28,13.27c1.16-.12,1.21-3.24,1.08-4.16,0-.24-.21-.64-.54-.54-.54.19-.44.86-.47,1.31-.09.9-.25,1.79-.47,2.66-.01.27.09.67.44.71l-.04.02Zm3.68-26c.75-1,2.1-2.2,2.06-3.53-.42-.76-1,.27-1.34.64-.46.89-2,1.83-1.52,2.91.18.22.5.24.72.06.05-.04.09-.09.12-.15l-.04.07Zm1.91-21c.22-.61,1-1,.95-1.74-.39-1.84-3.61,2.8-2.54,3.33.18.14.44.1.57-.08.02-.02.03-.05.05-.07.33-.53.69-.96,1.01-1.48l-.04.04Zm1.23,7.65c0-2.47-5.41,3.11-3.82,3.87.75.31,1.07-.78,1.48-1.21.41-.56.87-1.08,1.37-1.56.38-.38.87-.63,1.01-1.14l-.04.04Zm7,1.59c.13-.28.16-.59.1-.89-.06-.09-.17-.15-.28-.15-.65-.13-1,1.58-1.33,2-.37.66-.79,1.29-1.25,1.89-.21.25-.23.6-.06.87.56.75,2.17-1.78,2.73-3.43l.09-.29Zm.9-12.38c.1-.37,0-1.26-.57-.91-.24.52-.42,1.06-.54,1.62-.36,1.09-.83,2.14-1.42,3.13-.25.28-.25.72,0,1,.83.71,2.56-4.2,2.55-4.88l-.02.04Zm6.64,8c.52-.76,3.27-4.59,1.63-4.92-.33.09-.38.48-.47.76-.41.91-.88,1.79-1.41,2.64-.46.68-.93,1.29-1.46,2-.19.26-.19.61,0,.87.66.66,1.3-1.02,1.73-1.4l-.02.05Zm82.14-40.32c.51,1.7.55,3.51.1,5.23-.09,1.23-.76,2.44-.81,3.66l-.1.07c-.26-.5-.45-1.09-.68-1.65v-.13h0c-.45-1.21-1.09-2.43-2.09-1.51-.25,1.44.2,3,.22,4.46-.17,1.84-1.45,3.39-3.22,3.92-.35.16-.76.16-1.11,0-.04-.41.03-.81.21-1.18,1-2.78,1.17-6.27-1.36-8.29-.87-.66-3.11-3.51-3.52-1.1-.14.89.51,1.58.85,2.3.05.27.08.54.08.81,0,.62-.12,1.24-.35,1.82h0c-1.94-1.49-3.37-3.53-4.12-5.85-.41-1.91.37-3.85.67-5.72h0c3.2-7.24-5.7-15.09-9.29-20.92-1.12-1.62-2.01-3.4-2.63-5.27-.17-1.48-.75-2.89-1.67-4.06l-.15-.15-.5-.47-.08-.12-.25-.15c-.11-.06-.21-.13-.32-.18h0l-.27-.11-.59-.19-.56-.2-.41-.2-.05.07c-4.63-3.63-8.98-7.61-13-11.9-3.35-3.76-7.44-6.8-12-8.93-.81-.22-3.53-1.61-3.89-.51-.04.18.02.36.15.48.3,1.65.52,3.32.64,5-1.06-1.09-2.37-1.91-3.82-2.38-.29-.24-.73-.2-.97.09-.16.2-.2.46-.11.7.25.62.56,1.21.83,1.82,2.69,5.77,1.99,12.54-1.81,17.64-1.86,1.93-4.17,3.36-6.73,4.16-3.47.81-7.05.94-10.57.39-3.37-.7-6.23-2.92-8.8-5.14-3-3.2-3.64-7.7-3.43-11.91.13-3.48.69-6.94,1.64-10.29.31-.8.07-1.28-.25-1.31h0c-.87-.84-2.79,2.53-3.26,3.22-2.63,4.47-5.06,9.52-4.7,14.83.63,12.37,12,19.21,23.39,19.88,1.54.13,10.81,0,13.7-1.53,6.52,5.55,11.71,13.06,13.13,21.6.91,12.46-6.82,24-15.94,33.83-3.07,3.18-6.08,6.45-9.18,9.6.44-1.21.6-3.1,0-3.25s-.79.6-.82,1c0,1-.92,2.43-.16,3.17-.44.45-.89.89-1.34,1.33-.64.44-1.26.91-1.89,1.35-1.19.81-2.34,1.67-3.47,2.56.34-1.07.46-2.3,0-2.5-.87-.42-.9,1-1,1.53-.09.68-.7,1.52-.54,2.2l-1.26,1c-1.44,1.16-3,2.31-4.4,3.57.22-.68.24-1.4.06-2.09-.87-.68-1,2.06-1,3-1.54,1.42-2.76,3.14-3.59,5.05-.94,2.67-1.48,5.46-1.62,8.29-.06-.44-.15-.87-.27-1.29-.17-.56-.24-1.65-1-1.55-.89.31-.52,1.39-.24,2,.53,1.83.82,3.72.86,5.62,0,.12.05.22.13.31-.78,6-4,10.8-7.67,15.39.02-.69-.02-1.39-.14-2.07,0-.17-.14-.32-.31-.34-1.21.26-.62,2.84-.74,3.8v.06c-.93,1.12-1.88,2.24-2.82,3.36-.62.77-1.26,1.53-1.91,2.3,0-.7,0-1.41.07-2.11,0-.29.06-.84-.3-1-1-.11-1,3.65-.9,4.38h0c-1.38,1.62-2.75,3.24-4.07,4.91.25-.83.35-1.69.29-2.55-.05-.11-.16-.17-.28-.17-.38,0-.57.51-.67.82-.26.8-.42,1.63-.48,2.47-.04.22.07.45.27.56-2.22,2.85-4.05,5.98-5.43,9.31-.36.91-.76,1.82-1.1,2.75-.25.59-.44,1.21-.55,1.84-.06.25-.11.51-.14.77-.02.06-.02.14,0,.2-.1,2.36.32,5.38-2.75,5.85s-5.5-2-8.17-3.31c-1.31-.89-6.85-2.17-7.32-2.42-1.5-.49-2.89-1.26-4.1-2.27-.28-.21-.49-.5-.59-.84.01-.04.04-.08.07-.11.83-.49,2.08-.82,2.18-2-.01-.5-.43-.89-.92-.88-.03,0-.05,0-.08,0-1.16,0-3,1-3.63,1.34-.46.17-.69-.3-.55-.69.51-.82,1.64-.71,2.34-1.3.39-.29.47-.83.18-1.22-.07-.1-.17-.18-.28-.24-1.46-.76-2.83.6-4.18,1-.14,0-.38,0-.48-.11-.06-.16-.06-.33,0-.49.18-.39.49-.69.89-.85.54-.3,1.46-.46,1.51-1.2-.03-.33-.26-.6-.58-.68-.81-.25-1.69-.21-2.48.1-.56.19-1.14.28-1.73.27-.53-.16-.82-.72-.66-1.25.02-.07.05-.13.08-.19.16-.18.39-.31.63-.35,1.53-.29,3.07.54,4.53,1,2.11.85,4.38,1.24,6.66,1.12,4.12.22,8.54-1,11.08-4.28.04-.03.07-.06.1-.1l.07-.12c.26-.36.5-.74.71-1.13.07-.14.12-.28.15-.43.77-1.67,1.35-3.42,1.73-5.22,1.21-5.26,2.73-10.44,4.56-15.52,1.7-4.74,3.23-9.54,5.1-14.21.98-2.21,1.77-4.5,2.37-6.84.47-2.32.28-4.71.58-7,1.2-6.89,5.76-12.63,9.27-18.52,4.49-6.29,8.82-12.83,14.48-18.11,5.77-3.58,11.27-7.58,16.47-11.95,3.46-3.25,10.43-7.73,9.52-13.12-.14-.26-.39-.44-.68-.49-.21-.28-.61-.33-.89-.12-1.49,1.45-3.09,2.79-4.79,4-5.75,4.71-12.2,8.48-19.13,11.17-6.19,2.84-13.23,4.27-19.91,2.17-3.81-1.03-7.3-2.98-10.18-5.67-.27-.16-.53-.65-.85-.78h0c-3.47-4.87-3.61-11.58-2.22-17.2,1.13-4,3.42-7.77,5.64-11.26.31.16.65.23,1,.21,8.46-.11,16.76-7.76,16.93-16.32-.01-.1-.05-.2-.11-.29,0-.5-.29-1-.64-.85-.35-.07-.63.26-.76.57-1.91,3.33-4.67,6.09-8,8-2.75,1.19-5.89,2.24-8.93,2-.42-.33-1.19-.42-1.6-.74-7.23-4.18-2.78-13.7,1.49-18.43,2.22-2.62,5-4.67,7.39-7.16.35-.27.41-.76.15-1.11-.07-.09-.15-.16-.25-.21-.5-.23-1.13-.15-1.58-.46-.28-1-.24-2.46-1-3.24-.13-.03-.26.01-.35.11h0c-.92.13-3.53,4-3.6,5.79l-.19.11c-7.22,5.4-14.98,13.65-12.84,23.38.03.12.1.22.2.3-2.27,5.07-6.82,8.81-11,12.34-1.53,1.32-3.52,2.3-4.77,3.91-.19.22-.4.42-.62.61-1.84,2-1.41,5-2.5,7.35-.9,2.45-3.15,3.84-4.76,5.76-.7.78-.81,1.87-1.37,2.72-.37.25-.78,0-1.09-.23-.68-.55-1.02-1.42-.88-2.28.32-2.52,3-5.2,1.17-7.72-.95-1.47-2.23.5-3.07,1.13-3.28,3.06-3.42,5.77-1.63,9.71-1.57-.88-3.41-1.78-4.3-3.46-.52-3.38-.36-7.21,2-9.83.57-.12,1.1-.88,1.61-1.16,1.3-1.1,2.87-1.77,4.16-2.9,3.78-3.28,6.23-7.7,9-11.82,4-6.25,10-10.78,14.42-16.65,6.53-8.49,11.66-18.46,20.6-24.79,3.63-2,8.07-2.57,12.2-2.57.2-.01.41-.01.61,0h.45c.17.11.35.2.54.26,2.53,1.14,5.12,2.14,7.76,3,4.46.93,9.01,1.31,13.56,1.12,8-.79,15.77-4.09,24-3.05,3.11.38,5.82,2.16,8.64,3.47,6.13,3.39,11.68,7.74,16.43,12.89,3.34,3.65,5.91,8,9.66,11.28,1,.8,2,1.61,3,2.43,0,.03,0,.05,0,.08l.58.45.23.19c.09.09.18.19.26.29l.37.42.61.71.14.18.14.24.26.46h0c6.64,7.65,8.05,18.33,11.54,27.59,1.34,3.99,4.55,6.77,6.42,10.39l-.02.05Z"/>
      <path class="cls-1" d="m66.56,145.92c-2.74,3.99-5.2,8.16-7.37,12.48-1-1.23-2-2.53-2.91-3.82-5.22-6.73-8.85-14.56-10.62-22.89,4.79,7.34,12.31,12.46,20.9,14.23Z"/>
      <path class="cls-1" d="m106.62,182.13c.33.84,1.5.75,1.25-.27-.28-.88-.47-1.79-.56-2.71.03-.47-.06-.94-.26-1.36-1.88-1.37-.93,3.66-.43,4.34Zm6-5.8c.18.54,1,.46.79-.17-.41-1-.37-2.22-.69-3.28-.25-.42-.65-.14-.68.25-.09,1.1.13,2.21.63,3.2h-.05Zm2.17,10.23c.54-.14.25-.77.19-1.15-.34-1-.12-2.22-.31-3.22-.1-.21-.35-.3-.56-.2-.12.06-.2.16-.23.29-.44,1.3-.32,2.73.33,3.94.12.24.37.37.63.34h-.05Zm5-6.44c.28.56,1.08.38.88-.29-.44-1.3-.65-2.72-1.12-4-1.49-.83-.17,3.83.25,4.29h-.01Zm4.83,10.21c.86-.82-1.13-2.56-1.65-3.24-.3-.33-1.27-1.27-1.42-.38.43,1.25,1.59,2.23,2.29,3.36.16.27.5.38.79.26h-.01Zm1.74-9.33c.36.51.94,0,.62-.44-.74-1-.81-2.46-1.64-3.36-1.1.15.51,3.38,1.02,3.8Zm5.12,13.85c.27.48.91.24.68-.31-.54-1.15-1.24-2.21-2.1-3.14-.13-.17-.34-.26-.55-.24-.27.1-.22.47-.08.65.73,1,1.43,2,2.05,3.06v-.02Zm3.31-14.85c1-.59-2.91-4.69-3.62-4-.32.34,0,.84.32,1.08.98.84,1.89,1.76,2.72,2.76.14.18.37.24.58.16Zm-.24,8c.5.51.94-.22.51-.64-.91-.9-1.55-2.16-2.71-2.79-1.15.35,1.84,2.91,2.2,3.43h0Zm6.24,8.75c.78.34.87-.82.31-1.13-.87-.48-1.24-1.52-2-2.07-1.53.16,1.04,2.98,1.69,3.21h0Zm1.83-7.73c.91-.49-2.86-5-3.54-4.11-.09.14-.09.31,0,.45,1.07,1.03,2.03,2.16,2.87,3.39.11.25.41.37.66.25,0,0,0,0,.01,0v.02Zm1.59,17.73c.47.48.9-.11.57-.59-.7-1.23-1.09-2.67-1.74-3.92-1.63-.86.56,4.24,1.17,4.52h0Zm2.14,9.28c.58.49,1-.29.62-.78-.6-.89-1.4-1.62-2.33-2.15-.17-.08-.36-.05-.51.06-.3.31,0,.78.24,1,.7.57,1.36,1.19,1.98,1.84v.03Zm3.32-11.46c.25.04.49-.13.53-.38,0-.04,0-.09,0-.13,0-.52-.47-.77-.88-.95-.57-.37-1.09-.81-1.55-1.31-.13-.12-.3-.17-.47-.14-.9.86,1.51,2.81,2.37,2.92h0Zm2.59,7.83c.31.43.81,0,.54-.38-.6-.92-1.24-2.2-2.4-2.44-.41.08-.35.65-.1.88.75.55,1.41,1.2,1.96,1.95h0Zm7.48,3.69c5.72,6.09-1.52,8.86-4.9,13.3-2.39,3.61-1,7.86-4.48,10.2-.04-.01-.07-.01-.11,0-1.04.55-2.14.99-3.27,1.31-1.75.35-3.55.31-5.28-.14-.13-.05-.34-.15-.39-.3h0c.14-1.19,1.67-1.55,2.61-2.05.52-.25,1.3-.61,1.2-1.3-.14-.31-.46-.49-.8-.45-1.43.26-2.76.88-3.88,1.8-.62.47-1,1.2-1.66,1.62-.48.05-.92-.24-1.06-.7.09-.35.42-.58.7-.83.46-.46,1.25-.5,1.71-1s-.41-.86-.86-.69c-1.35.19-2.57.91-3.39,2-.13.14-.3.25-.48.31-.66.12-1.25-.79-1-1.38,1-1.12,2.75-1.32,4.15-1.81,1.34-.13,2.51-.96,3.07-2.19.18-.44.45-.93.61-1.42.04-.03.07-.06.09-.1.57-1.36,1-2.79,1.52-4.16.9-2.27,2.12-5,2.21-7.57.46-.8-.68-3.86-1.29-4.77h0c-1.06-1.75-2.3-3.38-3.7-4.87-1.43-1.61-3-3.09-4.69-4.43-.03-1.48-.32-2.94-.86-4.32-.2-.48-.91-.61-.88.06.21,1.08.38,2.19.52,3.31-2.66-2-5.5-3.78-8.3-5.55.23-.94-.54-3.26-1.1-3.27-.88,0-.31,1.32-.27,1.86.05.19.08.38.1.58-2.37-1.56-4.73-3.13-7-4.77.45-.58-.12-2.72-.62-2.89-.89-.23-.39,1.54-.43,2.12-2.53-1.83-4.92-3.84-7.17-6-.16-.1-.32-.22-.46-.35-.04-.11-.14-.18-.25-.17-4.48-.49-7.91-4-10.66-7.37,5.39-3.61,11-6.86,16.21-10.77l.47-.36c.05.1.17.14.27.1h0c.8-.16,1.62-.22,2.43-.18.08.93.34,1.84.76,2.68.2.55,1,.48.81-.17s-.28-1.6-.5-2.37c2.07.42,3.51,1.73,5.64,3.52l.29.23c-.23.7.23,2.48.81,2.38s.44-1,.14-1.79c1.6.86,3.44,1.25,5.08,2.05,2.26,1.06,4.35,2.43,6.22,4.08.02.11.11.19.22.2l.31.28c.06.06.15.1.24.1,3.5,3.54,6.34,7.68,8.37,12.22.56,1.27,1,2.59,1.45,3.9-.58-.31-1.19-.57-1.81-.79-1,.72,1.25,1.86,2.24,2.07.49,1.49,1,3,1.62,4.41,2.35,5.04,5.4,9.72,9.06,13.9-.06.29.27.49.42.7h0Z"/>
      <path class="cls-1" d="m94.49,33.21v1.37c0,.48-.05.85-.09,1.28-.09.83-.23,1.66-.42,2.48-.19.8-.44,1.58-.74,2.35-.5,1.28-1.17,2.5-2,3.6-.37.49-.76.96-1.18,1.41-.37.38-.76.73-1.18,1.06h0c-.75.58-1.58,1.07-2.45,1.46h0c-.41.17-.83.31-1.25.44-.43.13-.87.23-1.32.3-.47.07-.94.11-1.42.12-.43.03-.85.03-1.28,0-.55-.06-1.09-.15-1.63-.28-.55-.13-1.09-.3-1.62-.5-.56-.21-1.1-.47-1.62-.76h0s-.05,0-.08,0c-.57-.32-1.12-.68-1.65-1.07-.55-.41-1.07-.86-1.57-1.34-.57-.56-1.1-1.15-1.59-1.78-.51-.66-.98-1.34-1.41-2.05-.46-.76-.86-1.55-1.22-2.36-.37-.85-.68-1.72-.94-2.61-.31-.95-.57-1.93-.77-2.91-.08-.54-.14-1.11-.2-1.68v-.62c0-.2,0-.36-.06-.54.9.06,1.81.11,2.7.2l4,.32c1.37.11,2.75.2,4.13.3l3.74.27,8.49.57,3.46.2c.32,0,.63.05.94.05h.24v.72Z"/>
      <path class="cls-1" d="m108.55,24.3c.1.16.05.43.11.62-.1.48-.29.93-.57,1.33-1.39,2.26-4.6,2.29-6.65.85-.91-.75-2.1-1.05-3.25-.82-1,.44-1.63,1.41-2.65,1.78-.96.34-2.02.23-2.89-.29-.56-.35-1-.89-1.52-1.29-.33-.3-.76-.47-1.21-.48-1.02.15-1.96.63-2.69,1.37-1.01.56-2.23.63-3.3.19h0c-.68-.55-1.16-1.38-2-1.8h-.1c-.68-.46-1.54-.54-2.29-.2-1.09.82-2.45,1.22-3.81,1.12-1.82-.21-2.89-3.07-4.91-2-.68.35-1.26.8-2,1.1-1.71.07-1.27-2.32-1-3.42.16-.47.37-.93.62-1.36,1.36,1.33,3.57,1,5.07,0,.39-.12.81-.05,1.14.18,1.4,1,3.22,1.66,4.85.83.6-.36,1.23-.65,1.9-.86.84-.05,1.47.62,2.16,1.06,1.22.88,2.79,1.12,4.22.65.93-.46,1.92-.8,2.94-1,.77,0,1.32.8,2.09,1,1.39.56,2.94.6,4.36.11.6-.29,1.23-.5,1.89-.6,1,.07,1.6.9,2.45,1.34,1.57.82,3.48.34,5-.44.3-.18.67-.23,1-.12.5.21.88.63,1.04,1.15Z"/>
      <path class="cls-1" d="m107.62,12.1c1,.18,3.33,5,2.54,5.67-.1.01-.2-.01-.29-.06h0c-.86-1.2-2.45-1.62-3.79-1-1.06.49-2,1.77-3.27,1.37-1.43-.67-2.62-2.19-4.15-2.19-.53,0-1.05.18-1.49.48-.72.42-1.28,1.1-2.2,1.13-1.51.2-2.32-1.55-3.77-1.69-1.28-.25-2.6.2-3.45,1.19-.45.09-1,.6-1.44.62-1.65.49-2.45-1.56-4-1.7-.77-.04-1.53.22-2.11.72-.59.52-1.36.78-2.14.72-1.46-.23-2.19-2-3.67-2.2-.94-.07-1.86.28-2.53.94-.06.04-.12.06-.19.06h0c-.07-.17-.07-.37,0-.54,1.02-1.98,2.43-3.73,4.16-5.14.06.02.12.02.18,0,.46-.21.76.17,1,.53.67,1,2.03,1.26,3.03.59.08-.05.15-.11.22-.17.35-.26.77-.78,1.24-.54.81.66,1.5,1.4,2.67,1.18.87-.18,1.7-.55,2.42-1.07.18-.06.38-.06.56,0,1.17.48,2.1,1.49,3.41,1.64.95.16,1.92-.14,2.61-.81.64-.58,1.48-.89,2.34-.86.18.04.35.11.5.21.14.19.52.28.7.41,1.67,1,3.53.46,5-.65.79-.12,1.4.9,2.13,1.13,1.11.33,2.29.33,3.4,0,.13-.02.26-.01.38.03Z"/>
      <path class="cls-1" d="m105.66,7.7h-.26c-.73.04-1.45-.21-2-.7-.55-.48-1.27-.72-2-.67-.92.3-1.48,1.28-2.46,1.46-.8.04-1.58-.18-2.24-.63-.9-.47-1.79-.94-2.8-.42-.82.25-1.25,1.09-2,1.36-1.15.15-2-.87-2.73-1.6-.37-.51-.95-.81-1.57-.83-1.03.12-1.96.69-2.54,1.55-.24.3-.61.48-1,.47-.47,0-.7-.52-1-.8-1.12-.79-2.55-.45-3.83,0,5.63-4.11,21.27-4.22,26.43.81Z"/>
      <path d="m122.96,95.43c-.07-.11-.07-.24,0-.35.27-.49.59-1,.81-1.53.12-.19.12-.47.28-.61s.33.2.27.36c-.28.75-.64,1.46-1.06,2.14-.05.08-.15.11-.23.06-.03-.02-.05-.04-.07-.07Z"/>
      <path d="m123.06,95.22c-.07-.13,0-.36.14-.37.43.04.15.81-.14.37Z"/>
    </g>
  </g>
</svg>